<mxfile host="Electron" agent="Mozilla/5.0 (X11; Linux x86_64) AppleWebKit/537.36 (KHTML, like Gecko) draw.io/24.7.5 Chrome/126.0.6478.183 Electron/31.3.0 Safari/537.36" version="24.7.5">
  <diagram name="第 1 页" id="huckOj3Etd9BhcJPRhfS">
    <mxGraphModel dx="333" dy="192" grid="1" gridSize="10" guides="1" tooltips="1" connect="1" arrows="1" fold="1" page="0" pageScale="1" pageWidth="827" pageHeight="1169" math="0" shadow="0">
      <root>
        <mxCell id="0" />
        <mxCell id="1" parent="0" />
        <mxCell id="IpwRG-ULH0a4QTr6mSDf-4" value="" style="group" vertex="1" connectable="0" parent="1">
          <mxGeometry x="160" y="120" width="40" height="80" as="geometry" />
        </mxCell>
        <mxCell id="IpwRG-ULH0a4QTr6mSDf-1" value="PC" style="rounded=0;whiteSpace=wrap;html=1;" vertex="1" parent="IpwRG-ULH0a4QTr6mSDf-4">
          <mxGeometry width="40" height="80" as="geometry" />
        </mxCell>
        <mxCell id="IpwRG-ULH0a4QTr6mSDf-2" value="" style="endArrow=none;html=1;rounded=0;exitX=0;exitY=1;exitDx=0;exitDy=0;" edge="1" parent="IpwRG-ULH0a4QTr6mSDf-4" source="IpwRG-ULH0a4QTr6mSDf-1">
          <mxGeometry width="50" height="50" relative="1" as="geometry">
            <mxPoint x="20" y="80" as="sourcePoint" />
            <mxPoint x="40" y="80" as="targetPoint" />
            <Array as="points">
              <mxPoint x="20" y="60" />
            </Array>
          </mxGeometry>
        </mxCell>
      </root>
    </mxGraphModel>
  </diagram>
</mxfile>
